<svg width="902" height="522" viewBox="0 0 902 522" fill="none" xmlns="http://www.w3.org/2000/svg">
<path d="M901 48.5049V520.5H1V49.1179L33 1H289L306 26.6111L322.5 1H578L595.377 27.5L613 1H869L901 48.5049Z" fill="#202020"/>
<path d="M1 49.1179V520.5H901V48.5049L869 1H613L595.377 27.5M1 49.1179L33 1H289L306 26.6111M1 49.1179L322.5 49.1125M595.377 27.5L578 1H322.5L306 26.6111M595.377 27.5L580.5 49.0675L322.5 49.1125M306 26.6111L322.5 49.1125" stroke="white" stroke-width="1.5" stroke-dasharray="22 10"/>
</svg>
