<svg width="592" height="382" viewBox="0 0 592 382" fill="none" xmlns="http://www.w3.org/2000/svg">
<path d="M9.5 381.5L1 217L2 208.5H22L35.5 1H555.5L570 208.5H589.5L591.5 217L582.5 381.5H9.5Z" fill="#202020"/>
<path d="M1 217L9.5 381.5H582.5L591.5 217M1 217L2 208.5H22M1 217H235.5H591.5M591.5 217L589.5 208.5H570M22 208.5L35.5 1M22 208.5H26.5M35.5 1H555.5M35.5 1L39.5 4M555.5 1L570 208.5M555.5 1L551 4M570 208.5H565M26.5 208.5L39.5 4M26.5 208.5H565M39.5 4H551M551 4L565 208.5M235.5 282H355.5L352.5 313H239L235.5 282Z" stroke="white"/>
</svg>
