<svg width="522" height="272" viewBox="0 0 522 272" fill="none" xmlns="http://www.w3.org/2000/svg">
<path fill-rule="evenodd" clip-rule="evenodd" d="M180.5 22.0059H21L32.5 4.99999C34.4232 2.1858 36.0056 1.499 39.5 1.49999H162C165.935 1.36317 167.64 2.0475 169.5 4.49999L180.5 22.0059Z" fill="#1F1F1F"/>
<path fill-rule="evenodd" clip-rule="evenodd" d="M21 22.0059H180.5H342L501.5 22L507.173 22.0059C515.074 22.0059 521 22.0059 521 33.3688V262.107C521 264.578 519.314 270.712 513.593 271H9.88889C5.93827 271 1 268.036 1 263.095V32.3807C1 25.9582 4.14932 21.8228 11.3704 22.0059H21Z" fill="#1F1F1F"/>
<path d="M180.5 22.0059H21M180.5 22.0059L169.5 4.49999C167.64 2.0475 165.935 1.36317 162 1.49999H39.5C36.0056 1.499 34.4232 2.1858 32.5 4.99999L21 22.0059M180.5 22.0059H342L501.5 22L507.173 22.0059C515.074 22.0059 521 22.0059 521 33.3688M180.5 22.0059C108.66 22.0059 46.3727 22.0059 21 22.0059M21 22.0059H11.3704M21 22.0059C16.6694 22.0059 13.4142 22.0059 11.3704 22.0059M521 33.3688V262.107M521 33.3688C521 44.7316 521 259.817 521 262.107M521 262.107C521 264.578 519.314 270.712 513.593 271H9.88889C5.93827 271 1 268.036 1 263.095M1 263.095V32.3807M1 263.095C1 263.095 1 38.8032 1 32.3807M1 32.3807C1 25.9582 4.14932 21.8228 11.3704 22.0059" stroke="white"/>
</svg>
