<svg width="522" height="271" viewBox="0 0 522 271" fill="none" xmlns="http://www.w3.org/2000/svg">
<path fill-rule="evenodd" clip-rule="evenodd" d="M342 21.0058L501.5 20.9999L507.173 21.0058C515.074 21.0058 521 21.0058 521 32.3687V261.107C521 263.577 519.314 269.712 513.593 270H9.88889C5.93827 270 1 267.036 1 262.095V31.3806C1 24.9581 4.14932 20.8227 11.3704 21.0058H180.5H340.802H342Z" fill="#1F1F1F"/>
<path fill-rule="evenodd" clip-rule="evenodd" d="M340.802 21.0058H180.5L192 3.99987C193.826 1.28007 195.31 0.453541 199 0.499873H321.5C325.912 0.515173 327.814 1.23925 330 3.99987L340.802 21.0058Z" fill="white"/>
<path d="M342 21.0058L501.5 20.9999L507.173 21.0058C515.074 21.0058 521 21.0058 521 32.3687M342 21.0058H340.802M342 21.0058C341.601 21.0058 341.202 21.0058 340.802 21.0058M521 32.3687V261.107M521 32.3687C521 43.7315 521 258.816 521 261.107M521 261.107C521 263.577 519.314 269.712 513.593 270H9.88889C5.93827 270 1 267.036 1 262.095M1 262.095V31.3806M1 262.095C1 262.095 1 37.8031 1 31.3806M1 31.3806C1 24.9581 4.14932 20.8227 11.3704 21.0058M11.3704 21.0058H180.5M11.3704 21.0058C25.3885 21.0058 96.3986 21.0058 180.5 21.0058M180.5 21.0058H340.802M180.5 21.0058L192 3.99987C193.826 1.28007 195.31 0.453541 199 0.499873H321.5C325.912 0.515173 327.814 1.23925 330 3.99987L340.802 21.0058M180.5 21.0058C232.388 21.0058 289.258 21.0058 340.802 21.0058" stroke="white"/>
</svg>
