<svg width="522" height="271" viewBox="0 0 522 271" fill="none" xmlns="http://www.w3.org/2000/svg">
<path fill-rule="evenodd" clip-rule="evenodd" d="M342 21.006L501.5 21L507.173 21.006C515.074 21.006 521 21.006 521 32.3688V261.107C521 263.578 519.314 269.712 513.593 270H9.88889C5.93827 270 1 267.036 1 262.095V31.3807C1 24.9582 4.14932 20.8228 11.3704 21.006H342Z" fill="#1F1F1F"/>
<path fill-rule="evenodd" clip-rule="evenodd" d="M342 21.006L353.5 3.96394C355.17 1.52286 356.532 0.961546 359.5 1.00011H484.5C487.552 0.975336 488.894 1.58807 490.5 4.12011L501 20.5001L501.5 21L342 21.006Z" fill="white"/>
<path d="M342 21.006L501.5 21M342 21.006H11.3704M342 21.006L353.5 3.96394C355.17 1.52286 356.532 0.961546 359.5 1.00011H484.5C487.552 0.975336 488.894 1.58807 490.5 4.12011M342 21.006C206.731 21.006 34.1042 21.006 11.3704 21.006M501.5 21L507.173 21.006C515.074 21.006 521 21.006 521 32.3688M501.5 21L501 20.5001M521 32.3688V261.107M521 32.3688C521 43.7316 521 258.817 521 261.107M521 261.107C521 263.578 519.314 269.712 513.593 270H9.88889C5.93827 270 1 267.036 1 262.095M1 262.095V31.3807M1 262.095C1 262.095 1 37.8032 1 31.3807M1 31.3807C1 24.9582 4.14932 20.8228 11.3704 21.006M490.5 4.12011L501 20.5001M490.5 4.12011C494.389 10.1866 496.853 14.0313 501 20.5001" stroke="white"/>
</svg>
